<svg width="63" height="54" viewBox="0 0 63 54" fill="none" xmlns="http://www.w3.org/2000/svg">
<path d="M47.4683 18.0686C47.4683 8.31886 36.8517 0.403656 23.7423 0.403656C10.6194 0.403656 0 8.31886 0 18.0686C0 24.0724 4.0471 29.3482 10.1949 32.5451L4.30128 43.9263L17.0835 34.9482C19.2085 35.4123 21.42 35.7419 23.7423 35.7419C36.8543 35.7419 47.4683 27.8294 47.4683 18.0686ZM16.2859 19.9856H11.2736V14.8909H16.2859V19.9856ZM31.496 14.8909H36.5083V19.9856H31.496V14.8909ZM21.3848 14.8909H26.3945V19.9856H21.3848V14.8909Z" fill="#00D1B2"/>
<path d="M63 29.1834C63 22.776 58.1417 17.2172 51.018 14.4214C51.3694 15.7369 51.5587 17.1019 51.5587 18.508C51.5587 30.065 38.9873 39.4412 23.4529 39.4412C23.2609 39.4412 23.0826 39.4 22.8933 39.4C26.9892 43.3301 33.383 45.8678 40.5824 45.8678C42.7776 45.8678 44.8622 45.5574 46.8681 45.1235L58.9474 53.5962L53.3755 42.855C59.1826 39.8313 63 34.8492 63 29.1834Z" fill="#00D1B2"/>
</svg>
